<?xml version="1.0" ?><svg style="enable-background:new 0 0 48 48;" version="1.1" viewBox="0 0 48 48" xml:space="preserve" xmlns="http://www.w3.org/2000/svg" xmlns:xlink="http://www.w3.org/1999/xlink"><g id="Icons"><g><path d="M23.7471,26.22992c0,0-2.257,2.1291-3.7122,5.3587c-1.4551,3.2295,0.6886,5.58,3.7311,9.6783    c0,0,4.0721-2.5289,4.5027-5.0501c0.4306-2.5213-1.0569-4.279-1.5523-5.3958C26.2211,29.70422,23.7471,26.22992,23.7471,26.22992z    " style="fill:#F9D9C0;"/><path d="M11.9711,28.85572c0,0-1.4606,1.6068-0.4434,3.1951l-3.0589,6.5974l-2.3826-1.0306    c0,0,1.0705-3.0611,1.8101-4.666C8.6359,31.34662,10.6414,29.51362,11.9711,28.85572z" style="fill:#FFC601;"/><path d="M35.912,28.80812c0,0,0.8768,1.7943-0.1404,3.3825l3.6594,6.4804l2.4828-1.0534    c0,0-1.0705-3.0611-1.8101-4.666C39.3641,31.34662,37.2418,29.46612,35.912,28.80812z" style="fill:#FFC601;"/><path d="M29.1385,26.38962l5.4617,1.901l-2.2889-5.9567c-0.1928-0.4415,0.444-5.025,0.3299-6.9076    c-0.0946-1.4791-0.397-2.922-1.0587-4.2747c-0.7939-1.6413-2.0038-2.8857-3.6107-3.7155    c-1.2098-0.6313-2.5331-0.8296-3.8943-0.8657c-1.7013-0.018-3.2893,0.3067-4.7639,1.2264    c-1.7769,1.1724-3.0435,2.7416-3.6107,4.8338c-0.4158,1.515-0.5481,3.0481-0.4726,4.5993    c0.0568,1.551,0.2458,3.0841,0.6617,4.5812c0,0.018,0,0.018,0.0189,0.036c0.0756,0.3427-1.3939,5.7944-2.3958,6.4435    c0,0,6.3048-2.1329,6.7774-2.0607l3.6647-2.9978l3.5873,0.3123l-0.3929,1.8977l0.8186,0.8158L29.1385,26.38962" style="fill:#464747;"/><path d="M23.7471,26.22992c0,0-1.2112,3.8977-2.6191,6.9906c-1.4079,3.0928,2.638,8.0464,2.638,8.0464    s-4.3095,1.1432-15.2972-2.6187c0,0,1.1366-4.199,2.842-6.6459c0,0-0.9365-1.7737,0.2364-2.8507    c1.1728-1.0769,8.2414-3.0961,8.2414-3.0961l0.5978-0.9666C20.3864,25.08892,22.0778,25.88502,23.7471,26.22992z" style="fill:#1D97FF;"/><path d="M23.7471,26.22992c0,0,1.3994,3.9368,2.8072,7.0297c1.4079,3.0928-2.7883,8.0073-2.7883,8.0073    s4.7439,1.1432,15.7316-2.6187c0,0-1.1366-4.199-2.8419-6.6459c0,0,0.9364-1.7737-0.2364-2.8507    c-1.1728-1.0769-8.2414-3.0961-8.2414-3.0961l-0.7684-1.2425C27.4095,24.81302,25.4164,25.88502,23.7471,26.22992z" style="fill:#1D97FF;"/><path d="M18.7197,14.38562c0,0-0.6175,0.1148-0.778,0.8519c-0.2131,0.9784-0.3744,2.5384,0.0285,4.5007    c0.7066,3.4408,2.0695,6.3584,5.149,6.5059c3.0794,0.1475,4.5029-0.872,5.8688-3.8153c1.1471-2.4719,1.323-5.2661,0.8176-7.2159    c-0.0964-0.3718-0.5522-0.6377-0.6962-0.94c0,0-4.5261-0.0185-5.3997-3.0027C23.7097,11.27022,23.4,15.06162,18.7197,14.38562z" style="fill:#F9D9C0;"/><g><path d="M29.8045,15.20852c-0.01,0-3.9658,1.2427-5.4558,1.7227l-0.16,0.05l-0.24,0.08l-0.15,0.05     l-1.54-0.51l-4.3171-1.3631l0.3471-1.1469c0,0,2.22-0.06,3.9-1.18c0.69-0.44,1.28-1.06,1.6-1.93c0,0,0.35,1.14,1.73,2.03     c0.85,0.55,2.09,1.01,3.88,1.04L29.8045,15.20852z" style="fill:#FFC601;"/><path d="M25.5187,13.01122v3.52l-1.17,0.4l-0.16,0.05l-0.24,0.08l-0.15,0.05l-1.6897-0.5596l0.0797-3.6404     c0.69-0.44,1.28-1.06,1.6-1.93C23.7887,10.98122,24.1387,12.12122,25.5187,13.01122z" style="fill:#F43735;"/></g><g><g><path d="M25.9886,18.70072c-0.044,0-0.0869-0.0078-0.1289-0.0215l-0.5703-0.1943      c-0.209-0.0713-0.3213-0.2989-0.25-0.5078c0.0713-0.209,0.2978-0.3213,0.5078-0.25l0.4453,0.1523l1.9014-0.6035      c0.2109-0.0664,0.4355,0.0498,0.5019,0.2598c0.0674,0.2109-0.0488,0.4355-0.2598,0.5019l-2.0263,0.6436      C26.0706,18.69392,26.0296,18.70072,25.9886,18.70072z" style="fill:#CEAA91;"/></g><g><path d="M21.8148,18.70072c-0.0411,0-0.0821-0.0068-0.1211-0.0195l-2.0264-0.6436      c-0.2109-0.0664-0.3272-0.291-0.2598-0.5019c0.0664-0.21,0.291-0.3262,0.502-0.2598l1.9013,0.6035l0.3174-0.1084      c0.21-0.0703,0.4366,0.042,0.5078,0.25c0.0713,0.209-0.041,0.4365-0.25,0.5078l-0.4423,0.1504      C21.9017,18.69292,21.8587,18.70072,21.8148,18.70072z" style="fill:#CEAA91;"/></g><g><path d="M23.9017,21.43122c-0.0479,0-0.0967-0.0088-0.1426-0.0264l-0.5781-0.2197      c-0.2061-0.0782-0.3096-0.3096-0.2315-0.5166c0.0781-0.2051,0.3076-0.3086,0.5166-0.2315l0.4356,0.166l0.4355-0.166      c0.207-0.0771,0.4385,0.0264,0.5166,0.2315c0.0781,0.207-0.0254,0.4384-0.2314,0.5166l-0.5782,0.2197      C23.9983,21.42242,23.9495,21.43122,23.9017,21.43122z" style="fill:#CEAA91;"/></g><g><path d="M23.931,23.54442c-0.4551,0-0.8506-0.1953-1.0606-0.3632      c-0.1728-0.1377-0.2012-0.3887-0.0635-0.5616c0.1387-0.1738,0.3877-0.2002,0.5596-0.0654      c0.0567,0.044,0.5645,0.4053,1.0674,0.002c0.1728-0.1368,0.4238-0.1104,0.5625,0.0625      c0.1377,0.1728,0.1094,0.4248-0.0625,0.5625C24.598,23.44872,24.2503,23.54442,23.931,23.54442z" style="fill:#CEAA91;"/></g></g></g></g></svg>